<svg id="Warstwa_1" data-name="Warstwa 1" xmlns="http://www.w3.org/2000/svg" viewBox="0 0 200 60"><defs><style>.cls-1{fill:#e24040;}.cls-2{fill:#43465c;}.cls-3{fill:#c9a96f;}</style></defs><path class="cls-1" d="M170.58,3.9a26.7,26.7,0,0,1,19.55,7.79A26,26,0,0,1,198,30.88,26.11,26.11,0,0,1,190.15,50a27.47,27.47,0,0,1-38.46,0,27.42,27.42,0,0,1-3.13-3.67A25.37,25.37,0,0,1,143.83,32c0-.28,0-.56,0-.84a27.41,27.41,0,0,1,3.58-13.74A26.48,26.48,0,0,1,170.58,3.9Zm.22,5a21.93,21.93,0,0,0-18.8,11,22.32,22.32,0,0,0-2.87,11.23c0,.29,0,.57,0,.86a20.87,20.87,0,0,0,6.34,14.62,21,21,0,0,0,15.32,6.32A21.92,21.92,0,0,0,181.88,50a20.7,20.7,0,0,0,8-7.94,22.34,22.34,0,0,0,2.86-11.19,21.8,21.8,0,0,0-2.86-11.08,21.28,21.28,0,0,0-8-7.92A21.79,21.79,0,0,0,170.8,8.9Z"/><path class="cls-2" d="M146.27,36.93h-16.4l.77-3.47L152,32Q152,43.88,145,50.9C140.29,55.57,145.59,41.69,146.27,36.93Z"/><path class="cls-1" d="M11.82,56.61,19.18,5.19H20l20.9,42.19L61.63,5.19h.82l4.21,29.25L63.17,44.7,59.73,19.84,41.55,56.61H40.23l-18.39-37L16.79,56.61Z"/><path class="cls-1" d="M11.61,5.19h1.53V56.61H8V15.75Z"/><path class="cls-1" d="M92.37,31.65H73.31c3-9.36,6.39-18.39,9.42-27.75C86.05,13.26,89.05,22.29,92.37,31.65Z"/><polygon class="cls-3" points="100.71 57.91 64.89 57.91 72.03 37.56 93.78 37.56 100.71 57.91"/><line class="cls-1" x1="143.83" y1="31.97" x2="149.14" y2="31.97"/><line class="cls-1" x1="151.02" y1="40.27" x2="148.56" y2="46.4"/><path class="cls-1" d="M146.14,13.82l-4,3.78a30.31,30.31,0,0,0-9.43-6.41,25.27,25.27,0,0,0-10-2.19,23.76,23.76,0,0,0-11.51,3A21.54,21.54,0,0,0,102.76,20a20.74,20.74,0,0,0-3,10.75,21.28,21.28,0,0,0,3.11,11,22.13,22.13,0,0,0,8.6,8.21,24.78,24.78,0,0,0,12,3,20.56,20.56,0,0,0,13.42-4.47,17.64,17.64,0,0,0,6.5-11.61H127V32h22.16q-.08,11.91-7.08,18.93t-18.75,7q-11,0-18.51-5.82L95.31,23.75A49.73,49.73,0,0,1,98,17.29a26.11,26.11,0,0,1,10.07-9.85A29.37,29.37,0,0,1,122.58,3.9a32,32,0,0,1,12.3,2.36A36.65,36.65,0,0,1,146.14,13.82Z"/></svg>