<svg xmlns="http://www.w3.org/2000/svg" viewBox="0 0 200 60"><defs><style>.cls-1{fill:#1d1d1d;}.cls-2{fill:#e55656;}.cls-3{fill:#e24040;}.cls-4{fill:#c9a96f;}</style></defs><g id="Warstwa_2" data-name="Warstwa 2"><path class="cls-1" d="M26.43,23.45l-.16.12C26.4,23.44,26.47,23.37,26.43,23.45Z"/><path class="cls-1" d="M24.5,25.31a14.55,14.55,0,0,1,1.77-1.74C25.82,24,24.79,25.28,24.5,25.31Z"/><path class="cls-1" d="M26.75,23.61l-.66.54C26.41,23.76,26.41,23.9,26.75,23.61Z"/><polygon class="cls-1" points="26.39 23.68 26.37 23.59 26.75 23.34 26.39 23.68"/><path class="cls-1" d="M43.52,16.52c-.08-.05-.12-.09-.08-.13Z"/><path class="cls-1" d="M45.41,17.05a2.41,2.41,0,0,0,.41,0A1.3,1.3,0,0,1,45.41,17.05Z"/><path class="cls-1" d="M41.84,16.15a2,2,0,0,0,.32.1A1.19,1.19,0,0,1,41.84,16.15Z"/><path class="cls-1" d="M42,11.89a5.9,5.9,0,0,1-.41.71A1.57,1.57,0,0,1,42,11.89Z"/><path class="cls-1" d="M54.68,17l.07-.08C54.84,16.88,54.9,16.89,54.68,17Z"/><path class="cls-1" d="M45.87,18.09s0-.06.05-.08l.1,0Z"/><path class="cls-1" d="M40.58,15.77h0l-.23-.15A.47.47,0,0,1,40.58,15.77Z"/><path class="cls-1" d="M57.44,16.15a1.28,1.28,0,0,1,.39,0C57.55,16.22,57.41,16.21,57.44,16.15Z"/><path class="cls-1" d="M45.87,17.09Z"/><path class="cls-1" d="M42.89,17.74l.47.1A1.45,1.45,0,0,1,42.89,17.74Z"/><path class="cls-1" d="M42,11.89l.12-.24A.75.75,0,0,1,42,11.89Z"/><path class="cls-1" d="M28.08,21.82c.22-.17.3-.18.37-.18A2.46,2.46,0,0,1,28.08,21.82Z"/><path class="cls-1" d="M94.1,9.92l0,.1A.22.22,0,0,1,94.1,9.92Z"/><path class="cls-1" d="M88.16,1A.47.47,0,0,1,88,.89C88.13.92,88.17,1,88.16,1Z"/><path class="cls-1" d="M78.94,4a9.89,9.89,0,0,1,1.85-.7h-.21l.57-.17L81.1,3a7.93,7.93,0,0,1,2.41-.67l-.14-.15c.33,0,.66-.06,1-.06-.19,0-.38,0-.57,0A6,6,0,0,1,85.57,2a6.66,6.66,0,0,1,1.1.19l-.08-.08a1,1,0,0,1,.47.14L87,2.06a8.5,8.5,0,0,1,1.69.66,4.27,4.27,0,0,1,1.5,1.34c.35.37-.16-.24-.12-.28a2.3,2.3,0,0,1,.63.88c0-.22-.47-.84,0-.42.19.4-.07-.33.36.33a2.16,2.16,0,0,1,0,.36c.25.35.19,0,.51.59s-.64-.73-.08.39a6.78,6.78,0,0,1,1.33,2.24c.45,1,.11-.65.54.8l-.19-1c.14.22.18,0,.35.68a3.94,3.94,0,0,0,.13,1c-.29-1.4.58,1.12.37-.2l.14.47q0-.09,0-.06l.21.61c-.09-.37-.36-1.31-.09-.92l.32.87c0-.27.18,0,.24-.05-.21-.84-.41-1.79-.67-2.72,0,.13.07.54,0,.41-.31-.71-.1-.63-.45-1.28l0,.33c0-.07,0-.17,0,0s.12.34.07.37a3,3,0,0,1-.41-1.15C93,5.45,93.14,6.22,93,6c0-.53-.71-1.42-1-2l.09.39A13.92,13.92,0,0,1,91.1,3l0,.19c-.66-.81-1.26-.86-1.71-1.6l.06.11c-.38-.2-1-.45-1.32-.68,0,0-.11.05-.28,0S87.26.76,86.64.68c.4.11.24.26.64.39-.93,0-.8-.37-1.6-.42-.48.07.42.11.52.19C85,.63,83.82,1.36,83,1.21L83.51,1c-.48,0-.73.1-.66.12a.3.3,0,0,1,.26,0c-1.32.54-2.2.43-3.5,1.05.12,0,.32-.05.35,0-.58.32-.73-.06-1.64.5l.22,0c-.3.19-.58.2-.55.16.1.27-2,1-2.49,1.64a7.65,7.65,0,0,0-2.26,1c-.48.46.6-.1.46.16a10,10,0,0,0-1.38.63c-.1-.13,1.15-1-.15-.4L72,5.93a2.88,2.88,0,0,1,.48-.29c.41-.11-.17.22-.23.3l-1.35.7c-.19-.09.63-.51.69-.6-1,.63-2.16,1.58-3.17,2.08h.12c-1.29.64-.53.71-1.64,1.1-.48.36.28,0-.47.54-.21.15-.12,0-.09,0-1,.58-.32.41-1.25.86l.28,0a27.56,27.56,0,0,0-3.14,1.69c.13.08.66-.28.94-.34-1.31.6-2.92,1.78-4.18,2.2.3-.28-.67,0,0-.44.28.08.58-.2,1-.39-.79,0-2.64,1.45-3,1.19l-.13.2c-.19,0-.7.12-.39,0-.43.2-.88.36-1.32.54a4.28,4.28,0,0,0,1.85-.43c.44,0-.51.3-.11.33-1,.12-.52.31-1.5.57.37-.32-1,0-1-.09a4.34,4.34,0,0,1-1.31.22,17.69,17.69,0,0,1-2.75.61c.36,0,.92,0,.9.14-.46,0-1,.08-1,.25,1.66,0,.46-.43,1.93-.52a3.68,3.68,0,0,0,1.54-.08c-.31.18-.15.18-.26.33-1-.12-2.38.48-3.62.47-.52,0-.17-.32-1.32-.23l1-.22c-1.06.22-.26-.08-1.15,0l.36.08a2.49,2.49,0,0,1-1,0l.47.16c-.29,0-.84.09-.85,0-.07,0-.1.09-.1.12a1.79,1.79,0,0,0-.54,0c.2,0,.35,0,.36.06-1.32,0-.31.2-1.13.18.13,0-.1.11-.4.11,0-.28-1.57-.43-1.95-.68h0a7,7,0,0,1-1-.33c.2.07,0,.1-.35.06h.05c-.34-.06.29.44-.65,0L41.08,16c.09,0,0,0-.07,0s-.3-.21-.45-.32c-.91-.13-1.23-1-1.92-1.56.19.2.47.5.28.44a1,1,0,0,1-.36-.49v.06a4.67,4.67,0,0,1-.56-1.7,3,3,0,0,0,.06.58c0,.21.09.35-.06.16a2,2,0,0,1-.26-1.1c.08,0,.24.61.19,0-.06-.06-.2-.64-.23-.35a6.59,6.59,0,0,1,.35-2.12c0-.18-.09.09-.1.19v0c-.07.38-.22,0-.19.8-.27,0,0-1.11.15-1.76a9,9,0,0,0-.36,1,5.6,5.6,0,0,1,.79-3,3.78,3.78,0,0,1,1-1.21.9.9,0,0,1,1.14,0c-.4-.19-.77-.14-.67,0,.38,0,.45.14.62.24a2.36,2.36,0,0,1,.56.7l0-.08c.4.39.5,1.18.77,1.48,0-.28-.36-.72-.18-.81A6.85,6.85,0,0,1,42,8.66a4.64,4.64,0,0,0-.62-1.82c-.18-.33.32.7.1.6a12.51,12.51,0,0,0-.59-1.18,2.65,2.65,0,0,0-.47-.71c-.14-.14,0-.15.21,0a1.92,1.92,0,0,1,.53.44,14.75,14.75,0,0,1,1.1,3.25c.08.23.16.47.23.71-.15.67-.39.39-.5,1.51l.17-.32a2.6,2.6,0,0,1,0,.55,7.38,7.38,0,0,0,.42-1.49A3.65,3.65,0,0,1,41.7,13c.07,0,.24-.32.33-.4a3.74,3.74,0,0,1-1.46,1.66c-.61.38-1.23.67-1.74.93s.86-.42.74-.17c-.55.27-1.08.73-1.3.67.34.07-1.24.68-.11.31C36.25,17.08,34,18,32,19.07c.12,0,.15,0,.09.13a8.13,8.13,0,0,1,2.08-1c-.38.34-1.09.45-1.18.58.24-.08.68-.33.74-.24a6,6,0,0,1-1.29.68l.18-.18c-1.29.61-.87.08-2.11,1-.38.41.06.08.16.22-.33.14-1.16.94-1.56,1l.74-.54c-.55.32-1,.68-1.42.91a.31.31,0,0,0,.22-.06,11.8,11.8,0,0,1-1.2.77v.23a3.21,3.21,0,0,1,1.05-.86c0,.18-.74.67-1,.94,1.38-1.09,1.56-.87,2.71-1.81L30,21a12.55,12.55,0,0,1,2.28-1.42c-.17.15-.18.23-.07.2A47.65,47.65,0,0,1,37,16.91l.63-.13,0-.14c.87-.52.28.07.85-.25-.22.12-.19.08-.25.07,1.12-.43.52-.41,1.12-.71-.34.05-1.14.58-1,.27,1.12-.39,2.61-1.51,2.93-1.46a6.17,6.17,0,0,0,1.16-1.51,7,7,0,0,0,.58-1.88,8.35,8.35,0,0,0-.24-3.45c-.14-.24,0,.17-.07.09a3.63,3.63,0,0,0-.61-1.51c-.32-.48-.71-.83-.65-.89a1.21,1.21,0,0,0-.72-.3,1.53,1.53,0,0,0-1-.29,3.49,3.49,0,0,0-.58.18,4.78,4.78,0,0,0-.47.34c.13-.11.31-.2.48-.32l0,.06a2.85,2.85,0,0,0-.62.46v0a10.1,10.1,0,0,0-1.94,4.41c.2-.8.17.23.28-.14A5.35,5.35,0,0,0,37,13.68c.05,0,.13.06.1-.11a7.86,7.86,0,0,0,.27.82v-.13a6.43,6.43,0,0,0,3,2.8c-.54-.31-.51-.36-.52-.46a13.18,13.18,0,0,0,3,1.14c-.06,0-.1-.06-.1-.08a8.68,8.68,0,0,1,1,.23l.06-.13c.6.16,1.38.13,2.09.25A3.09,3.09,0,0,1,47,18a10.13,10.13,0,0,0,1.47,0c.32,0-.69-.09.18-.16.15.27,1.14-.11,1.24.18l.75-.23.19.13c.6-.37,1-.05,1.94-.32,0,0-.16,0-.11-.05.31,0,1-.19.49,0,.51-.1,2.24-.51,1.43-.45.08.07-.64.19-1,.23,0-.13.78-.27.93-.47h.21l.08-.11c1-.12,1.88-.54,2.61-.62,0-.06.17-.14.49-.26L58,16l1-.41-.54,0c1-.48,1.86-.6,2.72-1,.08-.35,1.65-.82,2.19-1.49l-.65.34c1.33-.8,1.43-1.09,2.65-1.81-.94.75-1,.72-2.34,1.89,1.46-1.08,2.63-1.61,3.87-2.63-.13,0-.48.2-.2-.08.34-.06,1.24-.83,1.14-.56.38-.32.37-.5.61-.68l1.51-.7h-.06C72.08,7.09,74.55,6.5,77,5.09L76.91,5l.7-.2c-.54.17.16-.2.17-.29L79.49,4C79.5,3.86,79.33,3.75,78.94,4ZM58,15.85l-.42.15a.72.72,0,0,1-.27.09l.27-.09C57.76,15.9,57.89,15.78,58,15.85Zm-15.92-2.2c-.18.15.17-.3.25-.45a4.4,4.4,0,0,1-.47.64C41.79,14,42,13.74,42.05,13.65Zm15.5,1.23.18-.19.32,0ZM62.93,12l-.54.28,0-.05L63,12ZM69.09,9,69,9l.12,0c.43-.18.49-.44.92-.48A1.58,1.58,0,0,1,69.09,9Zm-9.18,5.83a2.23,2.23,0,0,0-.43.18c.13,0,.55-.08.28.07s-.89.32-.94.21C59.44,15.1,59.7,14.63,59.91,14.79ZM45.6,17.93h.15a5.78,5.78,0,0,1-.57-.12Zm-2.69-.4c-.29-.23-1.11-.34-1.63-.6-.18,0,.32.43,1,.55C43,17.77,42.62,17.37,42.91,17.53Zm21-5.38h-.18l.11-.09-.54.29a5.36,5.36,0,0,1,1.56-.88C64.59,11.68,63.65,12,63.93,12.15Zm-26,2.49c-.33-.54-.57-1.59-.43-1.53-.21,0,0,.87.18,1.11A2.9,2.9,0,0,1,37.88,14.64Zm.3-.18c.21.36.36.53.45.72a2.55,2.55,0,0,0,.39.62c-.73-.48-.66-.88-.54-.85-.33-.47-.33-.32-.53-.57Zm.2,1,.27.25c.4.2.58.07.94.59l-.94-.59A1.47,1.47,0,0,1,38.38,15.47Zm-1.32-7-.15.33c.09-.34.13-.37.15-.33l.13-.27C37.05,9,37.1,8.59,37.06,8.5Zm.3,5.48a5.83,5.83,0,0,0,.55.93C37.94,14.81,37.51,14.29,37.36,14Zm-.2-5.22A13.24,13.24,0,0,0,37,10.11,3,3,0,0,1,37.16,8.76ZM35.39,17.5l.54-.27-.2.25Zm6-3.8-.05.16a2.11,2.11,0,0,1-.27.25A2.51,2.51,0,0,0,41.38,13.7ZM42,7.44s.06,0,.07-.07a.62.62,0,0,1,0-.24.45.45,0,0,1,0,.24,6,6,0,0,0,.29.8c.05-.13-.11-.52-.11-.68.4.54.16,2,.53,1.53,0,.28-.06,1.18-.16.88A5.79,5.79,0,0,0,42,7.44s-.08-.06-.13-.17A1,1,0,0,1,42,7.44Zm-4.62,2.68c0,.25-.06.35-.08.4,0,.21-.09.37-.15.31.07-.52.11-.18.15-.31Zm0,1.55a7.2,7.2,0,0,1,.07-.8,2.92,2.92,0,0,0-.1.4,7.71,7.71,0,0,1,.24-1.18A4.62,4.62,0,0,1,37.38,11.67Zm.11.27-.08.18.07-.26v.08l0,0,.08.66.15.65A6.8,6.8,0,0,1,37.49,11.94Zm11.22,5.33c.47-.4-1.22-.16-1.49-.34,0,.13-.56.35.76.27-1.14.18-.72-.18-1.4.13.55,0,1.22,0,1.32,0l-.65.05C47.63,17.61,48.25,17.26,48.71,17.27Zm6.84-1.46.82-.26-.78.23ZM73.83,5.36c-.09-.05.82-.7,1.13-.67A7.79,7.79,0,0,0,73.83,5.36ZM82.1,1.6c-.31.08-.62.16-.93.26.1-.26.82-.29,1.24-.46C82.59,1.45,82.23,1.49,82.1,1.6Zm6.16,0a2.34,2.34,0,0,1,.27.15,3,3,0,0,0-.22-.31ZM88,1.16c.22,0-.43-.29-.59-.31A4.75,4.75,0,0,1,88,1.16ZM92.29,5c-.07-.13-.15-.24-.22-.36,0,.14,0,.27,0,.41Zm-.51-.47c0-.14.24-.21-.4-.95-.13,0,0,.25-.3.06a3.25,3.25,0,0,0,.44.57c-.1-.19-.29-.36-.26-.46a2.39,2.39,0,0,1,.52.78.3.3,0,0,0,0,.24S91.82,4.68,91.78,4.55ZM89.39,2.11A.71.71,0,0,0,89.13,2l0-.05a.37.37,0,0,1,.29.17l.4.24c.15,0-.32-.49-.44-.63a5.25,5.25,0,0,0,.76.68c0-.07,0,0-.17-.22a4.11,4.11,0,0,1,.45.38c.36.58-.11.14-.6-.21,0,0-.08,0-.19-.05A.76.76,0,0,1,89.39,2.11ZM92,5.69l-.11-.28c0-.16,0-.09,0-.16C92.08,5.57,92.23,6,92,5.69ZM76.5,4.24c.17-.12-.3,0-.69.2L76,4.19c.06.09.86-.33,1-.36S76.77,4,76.5,4.24ZM58.39,14.88c-.23-.12-1.25.43-1.51.46C57.43,15.1,58.66,14.51,58.39,14.88Zm-1.84.82c-.3.1-.38.14-.38,0-.16,0-.38.14-.54.15.56-.28.57-.11.92-.18l.28-.1A1.61,1.61,0,0,1,56.55,15.7ZM67.24,9.61l.43-.1.54-.37Zm6.15-3.34c-.08,0,.57-.41.73-.45-.1-.08-.53.18-.89.36a1.08,1.08,0,0,0-.23.11l.23-.11c.15,0,.08.05.1.08l-.16.13.5-.24ZM84.6,1.72a1.25,1.25,0,0,1,.74-.07A3.64,3.64,0,0,1,84.6,1.72ZM70.22,8.18c.62-.44-.4,0,0-.27l-.34.22c.49-.44.46-.13.83-.39l-.25.18c-.14.21.44-.18.53-.13C70.71,8,70,8.35,70.22,8.18Zm15-6.43c.68-.12.55.12.95.17C85.68,2,85.77,1.76,85.26,1.75ZM74.51,6.16l0,0L75,6l0,0Z"/><path class="cls-1" d="M86.21.63a2.83,2.83,0,0,1,.43.05Z"/><path class="cls-1" d="M54.58,15.51s-.07.06-.15.09S54.47,15.56,54.58,15.51Z"/><polygon class="cls-1" points="53.17 15.8 53.12 15.82 53.07 15.82 53.17 15.8"/><path class="cls-1" d="M28.34,21.43c-.34.09.23-.21.43-.36C28.57,21.23,28.55,21.37,28.34,21.43Z"/><path class="cls-1" d="M30.09,20.45a3,3,0,0,0-.55.29A1.94,1.94,0,0,1,30.09,20.45Z"/><path class="cls-1" d="M28.74,21.34a6.64,6.64,0,0,1,.8-.6A9.43,9.43,0,0,1,28.74,21.34Z"/><path class="cls-1" d="M34.64,17.63a3.66,3.66,0,0,0-.82.41c1.11-.71-.31,0-.44,0A3.3,3.3,0,0,1,34.64,17.63Z"/><path class="cls-1" d="M36.19,16.86l-.31.18A1.92,1.92,0,0,1,36.19,16.86Z"/><path class="cls-1" d="M36.58,16.56a2.09,2.09,0,0,1,.82-.2,5.46,5.46,0,0,1-1.21.5C36.47,16.71,36.76,16.58,36.58,16.56Z"/><path class="cls-1" d="M40.63,6.34c0,.07.18.22.14.26a2.69,2.69,0,0,0-.4-.42C40.22,6,40.54,6.24,40.63,6.34Z"/><path class="cls-1" d="M39,6.36c-.32.45-.05.28-.22.51l-.14-.12A4.61,4.61,0,0,1,39,6.36Z"/><path class="cls-1" d="M38.53,5.48l.16-.14-.17.18Z"/><path class="cls-1" d="M38.08,8.93l.3-.33C38.2,9,38,9,38.08,8.93Z"/><path class="cls-1" d="M37.93,11.08l.08-.32a6.83,6.83,0,0,0,0,1Z"/><path class="cls-1" d="M38.35,13.54l.07.06c.08.2.21.39.31.59A4.24,4.24,0,0,1,38.35,13.54Z"/><path class="cls-1" d="M65.2,10.27c.19.08-.85.71-1.11.94C64.16,10.9,64.92,10.72,65.2,10.27Z"/><path class="cls-1" d="M85.09.68a9.56,9.56,0,0,0-1.2.11C84.8.57,84.14.73,85.09.68Z"/><path class="cls-2" d="M26.43,23.45l-.16.12C26.4,23.44,26.47,23.37,26.43,23.45Z"/><path class="cls-2" d="M24.5,25.31a14.55,14.55,0,0,1,1.77-1.74C25.82,24,24.79,25.28,24.5,25.31Z"/><path class="cls-2" d="M26.75,23.61l-.66.54C26.41,23.76,26.41,23.9,26.75,23.61Z"/><polygon class="cls-2" points="26.39 23.68 26.37 23.59 26.75 23.34 26.39 23.68"/><path class="cls-2" d="M43.52,16.52c-.08-.05-.12-.09-.08-.13Z"/><path class="cls-2" d="M45.41,17.05a2.41,2.41,0,0,0,.41,0A1.3,1.3,0,0,1,45.41,17.05Z"/><path class="cls-2" d="M41.84,16.15a2,2,0,0,0,.32.1A1.19,1.19,0,0,1,41.84,16.15Z"/><path class="cls-2" d="M42,11.89a5.9,5.9,0,0,1-.41.71A1.57,1.57,0,0,1,42,11.89Z"/><path class="cls-2" d="M54.68,17l.07-.08C54.84,16.88,54.9,16.89,54.68,17Z"/><path class="cls-2" d="M45.87,18.09s0-.06.05-.08l.1,0Z"/><path class="cls-2" d="M40.58,15.77h0l-.23-.15A.47.47,0,0,1,40.58,15.77Z"/><path class="cls-2" d="M57.44,16.15a1.28,1.28,0,0,1,.39,0C57.55,16.22,57.41,16.21,57.44,16.15Z"/><path class="cls-2" d="M45.87,17.09Z"/><path class="cls-2" d="M42.89,17.74l.47.1A1.45,1.45,0,0,1,42.89,17.74Z"/><path class="cls-2" d="M42,11.89l.12-.24A.75.75,0,0,1,42,11.89Z"/><path class="cls-2" d="M28.08,21.82c.22-.17.3-.18.37-.18A2.46,2.46,0,0,1,28.08,21.82Z"/><path class="cls-2" d="M94.1,9.92l0,.1A.22.22,0,0,1,94.1,9.92Z"/><path class="cls-2" d="M88.16,1A.47.47,0,0,1,88,.89C88.13.92,88.17,1,88.16,1Z"/><path class="cls-2" d="M78.94,4a9.89,9.89,0,0,1,1.85-.7h-.21l.57-.17L81.1,3a7.93,7.93,0,0,1,2.41-.67l-.14-.15c.33,0,.66-.06,1-.06-.19,0-.38,0-.57,0A6,6,0,0,1,85.57,2a6.66,6.66,0,0,1,1.1.19l-.08-.08a1,1,0,0,1,.47.14L87,2.06a8.5,8.5,0,0,1,1.69.66,4.27,4.27,0,0,1,1.5,1.34c.35.37-.16-.24-.12-.28a2.3,2.3,0,0,1,.63.88c0-.22-.47-.84,0-.42.19.4-.07-.33.36.33a2.16,2.16,0,0,1,0,.36c.25.35.19,0,.51.59s-.64-.73-.08.39a6.78,6.78,0,0,1,1.33,2.24c.45,1,.11-.65.54.8l-.19-1c.14.22.18,0,.35.68a3.94,3.94,0,0,0,.13,1c-.29-1.4.58,1.12.37-.2l.14.47q0-.09,0-.06l.21.61c-.09-.37-.36-1.31-.09-.92l.32.87c0-.27.18,0,.24-.05-.21-.84-.41-1.79-.67-2.72,0,.13.07.54,0,.41-.31-.71-.1-.63-.45-1.28l0,.33c0-.07,0-.17,0,0s.12.34.07.37a3,3,0,0,1-.41-1.15C93,5.45,93.14,6.22,93,6c0-.53-.71-1.42-1-2l.09.39A13.92,13.92,0,0,1,91.1,3l0,.19c-.66-.81-1.26-.86-1.71-1.6l.06.11c-.38-.2-1-.45-1.32-.68,0,0-.11.05-.28,0S87.26.76,86.64.68c.4.11.24.26.64.39-.93,0-.8-.37-1.6-.42-.48.07.42.11.52.19C85,.63,83.82,1.36,83,1.21L83.51,1c-.48,0-.73.1-.66.12a.3.3,0,0,1,.26,0c-1.32.54-2.2.43-3.5,1.05.12,0,.32-.05.35,0-.58.32-.73-.06-1.64.5l.22,0c-.3.19-.58.2-.55.16.1.27-2,1-2.49,1.64a7.65,7.65,0,0,0-2.26,1c-.48.46.6-.1.46.16a10,10,0,0,0-1.38.63c-.1-.13,1.15-1-.15-.4L72,5.93a2.88,2.88,0,0,1,.48-.29c.41-.11-.17.22-.23.3l-1.35.7c-.19-.09.63-.51.69-.6-1,.63-2.16,1.58-3.17,2.08h.12c-1.29.64-.53.71-1.64,1.1-.48.36.28,0-.47.54-.21.15-.12,0-.09,0-1,.58-.32.41-1.25.86l.28,0a27.56,27.56,0,0,0-3.14,1.69c.13.08.66-.28.94-.34-1.31.6-2.92,1.78-4.18,2.2.3-.28-.67,0,0-.44.28.08.58-.2,1-.39-.79,0-2.64,1.45-3,1.19l-.13.2c-.19,0-.7.12-.39,0-.43.2-.88.36-1.32.54a4.28,4.28,0,0,0,1.85-.43c.44,0-.51.3-.11.33-1,.12-.52.31-1.5.57.37-.32-1,0-1-.09a4.34,4.34,0,0,1-1.31.22,17.69,17.69,0,0,1-2.75.61c.36,0,.92,0,.9.14-.46,0-1,.08-1,.25,1.66,0,.46-.43,1.93-.52a3.68,3.68,0,0,0,1.54-.08c-.31.18-.15.18-.26.33-1-.12-2.38.48-3.62.47-.52,0-.17-.32-1.32-.23l1-.22c-1.06.22-.26-.08-1.15,0l.36.08a2.49,2.49,0,0,1-1,0l.47.16c-.29,0-.84.09-.85,0-.07,0-.1.09-.1.12a1.79,1.79,0,0,0-.54,0c.2,0,.35,0,.36.06-1.32,0-.31.2-1.13.18.13,0-.1.11-.4.11,0-.28-1.57-.43-1.95-.68h0a7,7,0,0,1-1-.33c.2.07,0,.1-.35.06h.05c-.34-.06.29.44-.65,0L41.08,16c.09,0,0,0-.07,0s-.3-.21-.45-.32c-.91-.13-1.23-1-1.92-1.56.19.2.47.5.28.44a1,1,0,0,1-.36-.49v.06a4.67,4.67,0,0,1-.56-1.7,3,3,0,0,0,.06.58c0,.21.09.35-.06.16a2,2,0,0,1-.26-1.1c.08,0,.24.61.19,0-.06-.06-.2-.64-.23-.35a6.59,6.59,0,0,1,.35-2.12c0-.18-.09.09-.1.19v0c-.07.38-.22,0-.19.8-.27,0,0-1.11.15-1.76a9,9,0,0,0-.36,1,5.6,5.6,0,0,1,.79-3,3.78,3.78,0,0,1,1-1.21.9.9,0,0,1,1.14,0c-.4-.19-.77-.14-.67,0,.38,0,.45.14.62.24a2.36,2.36,0,0,1,.56.7l0-.08c.4.39.5,1.18.77,1.48,0-.28-.36-.72-.18-.81A6.85,6.85,0,0,1,42,8.66a4.64,4.64,0,0,0-.62-1.82c-.18-.33.32.7.1.6a12.51,12.51,0,0,0-.59-1.18,2.65,2.65,0,0,0-.47-.71c-.14-.14,0-.15.21,0a1.92,1.92,0,0,1,.53.44,14.75,14.75,0,0,1,1.1,3.25c.08.23.16.47.23.71-.15.67-.39.39-.5,1.51l.17-.32a2.6,2.6,0,0,1,0,.55,7.38,7.38,0,0,0,.42-1.49A3.65,3.65,0,0,1,41.7,13c.07,0,.24-.32.33-.4a3.74,3.74,0,0,1-1.46,1.66c-.61.38-1.23.67-1.74.93s.86-.42.74-.17c-.55.27-1.08.73-1.3.67.34.07-1.24.68-.11.31C36.25,17.08,34,18,32,19.07c.12,0,.15,0,.09.13a8.13,8.13,0,0,1,2.08-1c-.38.34-1.09.45-1.18.58.24-.08.68-.33.74-.24a6,6,0,0,1-1.29.68l.18-.18c-1.29.61-.87.08-2.11,1-.38.41.06.08.16.22-.33.14-1.16.94-1.56,1l.74-.54c-.55.32-1,.68-1.42.91a.31.31,0,0,0,.22-.06,11.8,11.8,0,0,1-1.2.77v.23a3.21,3.21,0,0,1,1.05-.86c0,.18-.74.67-1,.94,1.38-1.09,1.56-.87,2.71-1.81L30,21a12.55,12.55,0,0,1,2.28-1.42c-.17.15-.18.23-.07.2A47.65,47.65,0,0,1,37,16.91l.63-.13,0-.14c.87-.52.28.07.85-.25-.22.12-.19.08-.25.07,1.12-.43.52-.41,1.12-.71-.34.05-1.14.58-1,.27,1.12-.39,2.61-1.51,2.93-1.46a6.17,6.17,0,0,0,1.16-1.51,7,7,0,0,0,.58-1.88,8.35,8.35,0,0,0-.24-3.45c-.14-.24,0,.17-.07.09a3.63,3.63,0,0,0-.61-1.51c-.32-.48-.71-.83-.65-.89a1.21,1.21,0,0,0-.72-.3,1.53,1.53,0,0,0-1-.29,3.49,3.49,0,0,0-.58.18,4.78,4.78,0,0,0-.47.34c.13-.11.31-.2.48-.32l0,.06a2.85,2.85,0,0,0-.62.46v0a10.1,10.1,0,0,0-1.94,4.41c.2-.8.17.23.28-.14A5.35,5.35,0,0,0,37,13.68c.05,0,.13.06.1-.11a7.86,7.86,0,0,0,.27.82v-.13a6.43,6.43,0,0,0,3,2.8c-.54-.31-.51-.36-.52-.46a13.18,13.18,0,0,0,3,1.14c-.06,0-.1-.06-.1-.08a8.68,8.68,0,0,1,1,.23l.06-.13c.6.16,1.38.13,2.09.25A3.09,3.09,0,0,1,47,18a10.13,10.13,0,0,0,1.47,0c.32,0-.69-.09.18-.16.15.27,1.14-.11,1.24.18l.75-.23.19.13c.6-.37,1-.05,1.94-.32,0,0-.16,0-.11-.05.31,0,1-.19.49,0,.51-.1,2.24-.51,1.43-.45.08.07-.64.19-1,.23,0-.13.78-.27.93-.47h.21l.08-.11c1-.12,1.88-.54,2.61-.62,0-.06.17-.14.49-.26L58,16l1-.41-.54,0c1-.48,1.86-.6,2.72-1,.08-.35,1.65-.82,2.19-1.49l-.65.34c1.33-.8,1.43-1.09,2.65-1.81-.94.75-1,.72-2.34,1.89,1.46-1.08,2.63-1.61,3.87-2.63-.13,0-.48.2-.2-.08.34-.06,1.24-.83,1.14-.56.38-.32.37-.5.61-.68l1.51-.7h-.06C72.08,7.09,74.55,6.5,77,5.09L76.91,5l.7-.2c-.54.17.16-.2.17-.29L79.49,4C79.5,3.86,79.33,3.75,78.94,4ZM58,15.85l-.42.15a.72.72,0,0,1-.27.09l.27-.09C57.76,15.9,57.89,15.78,58,15.85Zm-15.92-2.2c-.18.15.17-.3.25-.45a4.4,4.4,0,0,1-.47.64C41.79,14,42,13.74,42.05,13.65Zm15.5,1.23.18-.19.32,0ZM62.93,12l-.54.28,0-.05L63,12ZM69.09,9,69,9l.12,0c.43-.18.49-.44.92-.48A1.58,1.58,0,0,1,69.09,9Zm-9.18,5.83a2.23,2.23,0,0,0-.43.18c.13,0,.55-.08.28.07s-.89.32-.94.21C59.44,15.1,59.7,14.63,59.91,14.79ZM45.6,17.93h.15a5.78,5.78,0,0,1-.57-.12Zm-2.69-.4c-.29-.23-1.11-.34-1.63-.6-.18,0,.32.43,1,.55C43,17.77,42.62,17.37,42.91,17.53Zm21-5.38h-.18l.11-.09-.54.29a5.36,5.36,0,0,1,1.56-.88C64.59,11.68,63.65,12,63.93,12.15Zm-26,2.49c-.33-.54-.57-1.59-.43-1.53-.21,0,0,.87.18,1.11A2.9,2.9,0,0,1,37.88,14.64Zm.3-.18c.21.36.36.53.45.72a2.55,2.55,0,0,0,.39.62c-.73-.48-.66-.88-.54-.85-.33-.47-.33-.32-.53-.57Zm.2,1,.27.25c.4.2.58.07.94.59l-.94-.59A1.47,1.47,0,0,1,38.38,15.47Zm-1.32-7-.15.33c.09-.34.13-.37.15-.33l.13-.27C37.05,9,37.1,8.59,37.06,8.5Zm.3,5.48a5.83,5.83,0,0,0,.55.93C37.94,14.81,37.51,14.29,37.36,14Zm-.2-5.22A13.24,13.24,0,0,0,37,10.11,3,3,0,0,1,37.16,8.76ZM35.39,17.5l.54-.27-.2.25Zm6-3.8-.05.16a2.11,2.11,0,0,1-.27.25A2.51,2.51,0,0,0,41.38,13.7ZM42,7.44s.06,0,.07-.07a.62.62,0,0,1,0-.24.45.45,0,0,1,0,.24,6,6,0,0,0,.29.8c.05-.13-.11-.52-.11-.68.4.54.16,2,.53,1.53,0,.28-.06,1.18-.16.88A5.79,5.79,0,0,0,42,7.44s-.08-.06-.13-.17A1,1,0,0,1,42,7.44Zm-4.62,2.68c0,.25-.06.35-.08.4,0,.21-.09.37-.15.31.07-.52.11-.18.15-.31Zm0,1.55a7.2,7.2,0,0,1,.07-.8,2.92,2.92,0,0,0-.1.4,7.71,7.71,0,0,1,.24-1.18A4.62,4.62,0,0,1,37.38,11.67Zm.11.27-.08.18.07-.26v.08l0,0,.08.66.15.65A6.8,6.8,0,0,1,37.49,11.94Zm11.22,5.33c.47-.4-1.22-.16-1.49-.34,0,.13-.56.35.76.27-1.14.18-.72-.18-1.4.13.55,0,1.22,0,1.32,0l-.65.05C47.63,17.61,48.25,17.26,48.71,17.27Zm6.84-1.46.82-.26-.78.23ZM73.83,5.36c-.09-.05.82-.7,1.13-.67A7.79,7.79,0,0,0,73.83,5.36ZM82.1,1.6c-.31.08-.62.16-.93.26.1-.26.82-.29,1.24-.46C82.59,1.45,82.23,1.49,82.1,1.6Zm6.16,0a2.34,2.34,0,0,1,.27.15,3,3,0,0,0-.22-.31ZM88,1.16c.22,0-.43-.29-.59-.31A4.75,4.75,0,0,1,88,1.16ZM92.29,5c-.07-.13-.15-.24-.22-.36,0,.14,0,.27,0,.41Zm-.51-.47c0-.14.24-.21-.4-.95-.13,0,0,.25-.3.06a3.25,3.25,0,0,0,.44.57c-.1-.19-.29-.36-.26-.46a2.39,2.39,0,0,1,.52.78.3.3,0,0,0,0,.24S91.82,4.68,91.78,4.55ZM89.39,2.11A.71.71,0,0,0,89.13,2l0-.05a.37.37,0,0,1,.29.17l.4.24c.15,0-.32-.49-.44-.63a5.25,5.25,0,0,0,.76.68c0-.07,0,0-.17-.22a4.11,4.11,0,0,1,.45.38c.36.58-.11.14-.6-.21,0,0-.08,0-.19-.05A.76.76,0,0,1,89.39,2.11ZM92,5.69l-.11-.28c0-.16,0-.09,0-.16C92.08,5.57,92.23,6,92,5.69ZM76.5,4.24c.17-.12-.3,0-.69.2L76,4.19c.06.09.86-.33,1-.36S76.77,4,76.5,4.24ZM58.39,14.88c-.23-.12-1.25.43-1.51.46C57.43,15.1,58.66,14.51,58.39,14.88Zm-1.84.82c-.3.1-.38.14-.38,0-.16,0-.38.14-.54.15.56-.28.57-.11.92-.18l.28-.1A1.61,1.61,0,0,1,56.55,15.7ZM67.24,9.61l.43-.1.54-.37Zm6.15-3.34c-.08,0,.57-.41.73-.45-.1-.08-.53.18-.89.36a1.08,1.08,0,0,0-.23.11l.23-.11c.15,0,.08.05.1.08l-.16.13.5-.24ZM84.6,1.72a1.25,1.25,0,0,1,.74-.07A3.64,3.64,0,0,1,84.6,1.72ZM70.22,8.18c.62-.44-.4,0,0-.27l-.34.22c.49-.44.46-.13.83-.39l-.25.18c-.14.21.44-.18.53-.13C70.71,8,70,8.35,70.22,8.18Zm15-6.43c.68-.12.55.12.95.17C85.68,2,85.77,1.76,85.26,1.75ZM74.51,6.16l0,0L75,6l0,0Z"/><path class="cls-2" d="M86.21.63a2.83,2.83,0,0,1,.43.05Z"/><path class="cls-2" d="M54.58,15.51s-.07.06-.15.09S54.47,15.56,54.58,15.51Z"/><polygon class="cls-2" points="53.17 15.8 53.12 15.82 53.07 15.82 53.17 15.8"/><path class="cls-2" d="M28.34,21.43c-.34.09.23-.21.43-.36C28.57,21.23,28.55,21.37,28.34,21.43Z"/><path class="cls-2" d="M30.09,20.45a3,3,0,0,0-.55.29A1.94,1.94,0,0,1,30.09,20.45Z"/><path class="cls-2" d="M28.74,21.34a6.64,6.64,0,0,1,.8-.6A9.43,9.43,0,0,1,28.74,21.34Z"/><path class="cls-2" d="M34.64,17.63a3.66,3.66,0,0,0-.82.41c1.11-.71-.31,0-.44,0A3.3,3.3,0,0,1,34.64,17.63Z"/><path class="cls-2" d="M36.19,16.86l-.31.18A1.92,1.92,0,0,1,36.19,16.86Z"/><path class="cls-2" d="M36.58,16.56a2.09,2.09,0,0,1,.82-.2,5.46,5.46,0,0,1-1.21.5C36.47,16.71,36.76,16.58,36.58,16.56Z"/><path class="cls-2" d="M40.63,6.34c0,.07.18.22.14.26a2.69,2.69,0,0,0-.4-.42C40.22,6,40.54,6.24,40.63,6.34Z"/><path class="cls-2" d="M39,6.36c-.32.45-.05.28-.22.51l-.14-.12A4.61,4.61,0,0,1,39,6.36Z"/><path class="cls-2" d="M38.53,5.48l.16-.14-.17.18Z"/><path class="cls-2" d="M38.08,8.93l.3-.33C38.2,9,38,9,38.08,8.93Z"/><path class="cls-2" d="M37.93,11.08l.08-.32a6.83,6.83,0,0,0,0,1Z"/><path class="cls-2" d="M38.35,13.54l.07.06c.08.2.21.39.31.59A4.24,4.24,0,0,1,38.35,13.54Z"/><path class="cls-2" d="M65.2,10.27c.19.08-.85.71-1.11.94C64.16,10.9,64.92,10.72,65.2,10.27Z"/><path class="cls-2" d="M85.09.68a9.56,9.56,0,0,0-1.2.11C84.8.57,84.14.73,85.09.68Z"/><path class="cls-3" d="M37.07,20.67h3V50.19h-3Z"/><path class="cls-3" d="M44.16,50.19l4.23-29.52h.48l12,24.22L72.76,20.67h.47l4.25,29.52H74.59L71.67,29.08,61.23,50.19h-.76L49.91,28.92,47,50.19Z"/><path class="cls-3" d="M138.32,25.62,136,27.79a17.68,17.68,0,0,0-5.41-3.68,14.58,14.58,0,0,0-5.74-1.26,13.63,13.63,0,0,0-6.61,1.71,12.35,12.35,0,0,0-4.87,4.63,11.91,11.91,0,0,0-1.72,6.17,12.18,12.18,0,0,0,1.78,6.33,12.68,12.68,0,0,0,4.94,4.72,14.25,14.25,0,0,0,6.91,1.72,11.81,11.81,0,0,0,7.7-2.57,10.19,10.19,0,0,0,3.74-6.67h-9.42V36h12.73q0,6.85-4.06,10.87t-10.77,4q-8.19,0-13-5.58a14.86,14.86,0,0,1-3.68-9.94,15.28,15.28,0,0,1,2.11-7.81A15,15,0,0,1,116.48,22a16.83,16.83,0,0,1,8.31-2,18.36,18.36,0,0,1,7.07,1.36A21,21,0,0,1,138.32,25.62Z"/><path class="cls-3" d="M159.75,19.92A15.34,15.34,0,0,1,171,24.4a14.91,14.91,0,0,1,4.52,11A15.42,15.42,0,0,1,160,50.94a15.12,15.12,0,0,1-11.09-4.5,14.78,14.78,0,0,1-4.51-10.88,15.74,15.74,0,0,1,2.05-7.89,15.24,15.24,0,0,1,13.31-7.75Zm.13,2.87a12.6,12.6,0,0,0-10.79,6.31,12.79,12.79,0,0,0-1.65,6.45,12.43,12.43,0,0,0,12.44,12.52,12.68,12.68,0,0,0,6.37-1.67,11.89,11.89,0,0,0,4.56-4.56,12.84,12.84,0,0,0,1.64-6.43,12.55,12.55,0,0,0-1.64-6.36,12.28,12.28,0,0,0-4.61-4.55A12.5,12.5,0,0,0,159.88,22.79Z"/><path class="cls-3" d="M101.23,35.43H88.33l6.16-19.79Z"/><polygon class="cls-4" points="108.59 59.38 81.04 59.38 87.85 39.26 101.81 39.26 108.59 59.38"/></g></svg>